# xmcd CD database file
#
# Track frame offsets:
#	150
#	12272
#	32248
#	51778
#	73424
#	98868
#	114983
#	128766
#	146726
#	169396
#	182030
#
# Disc length: 2630 seconds
#
# Revision: 0
# Processed by: cddbd v1.5.2PL0 Copyright (c) Steve Scherf et al.
# Submitted via: CDex 1.50beta10
#
DISCID=9f0a440b
DTITLE=Sean Taylor - Walk With Me
DYEAR=2010
DGENRE=Blues
TTITLE0=Perfect Candlelight
TTITLE1=Hold On
TTITLE2=Slow Dance
TTITLE3=Walk With Me
TTITLE4=Love Hate On
TTITLE5=Feel Alright
TTITLE6=So High
TTITLE7=For You
TTITLE8=She Moved Through The Fair
TTITLE9=Poets
TTITLE10=Fare Thee Well
EXTD=YEAR: 2010
EXTT0=
EXTT1=
EXTT2=
EXTT3=
EXTT4=
EXTT5=
EXTT6=
EXTT7=
EXTT8=
EXTT9=
EXTT10=
PLAYORDER=
